# File created by Blade
# Date/Time:  Wed Jan 21 14:58:10 2015
# Frame Rate: 120.000 fps
#------------------------------------------------------
:FULLY-SPECIFIED
:DEGREES
963
root 17.492457 35.440302 -22.853866 -169.244357 3.753790 -178.321976
Spine -19.166050 -4.140528 2.904681
Head 11.921110 2.476222 1.165161
LeftShoulder -9.503405 -29.314779 19.779865
LeftArm -1.486350 4.233386 -8.936722
LeftForeArm 9.808555 -0.000000 -3.204386
LeftHand -11.494211 0.000000 -1.745287
LeftHandThumb1 -26.253704 0.000000 33.147579
RightShoulder -14.211794 -3.145826 -11.561652
RightArm 9.295383 32.422838 11.110973
RightForeArm -35.198035 -0.000000 4.132708
RightHand -6.349922 0.000000 7.785956
RightHandThumb1 -24.326973 -0.000000 -32.862282
LeftUpLeg -1.348288 13.483837 3.781074
LeftLeg -7.193073 -0.000000 0.000000
LeftFoot -19.765970 27.689995 -15.233692
LeftToeBase 25.352972 -0.000000 -0.000000
RightUpLeg -4.436275 -3.706096 -2.546038
RightLeg -3.324141 -0.000000 0.000000
RightFoot -18.272932 -16.951052 17.472267
RightToeBase 22.781427 -0.000000 -0.000000
964
root 17.505179 35.435581 -22.869756 -169.226750 3.791590 -178.294850
Spine -19.261050 -4.222037 2.927343
Head 11.914283 2.249292 1.180934
LeftShoulder -9.631009 -29.271316 19.837877
LeftArm -1.585211 4.192933 -8.905570
LeftForeArm 9.919401 0.000000 -3.259978
LeftHand -11.514258 -0.000000 -1.786732
LeftHandThumb1 -26.253704 0.000000 33.147579
RightShoulder -14.375606 -3.263631 -11.548186
RightArm 9.000257 32.558618 10.983583
RightForeArm -35.236437 -0.000000 4.076551
RightHand -6.270442 -0.000000 7.672080
RightHandThumb1 -24.326973 -0.000000 -32.862282
LeftUpLeg -1.329740 13.510678 3.823834
LeftLeg -7.189959 -0.000000 0.000000
LeftFoot -19.813753 27.713205 -15.216633
LeftToeBase 25.369197 -0.000000 -0.000000
RightUpLeg -4.431794 -3.670852 -2.511063
RightLeg -3.317055 -0.000000 0.000000
RightFoot -18.297687 -16.923480 17.433096
RightToeBase 22.709521 -0.000000 -0.000000
965
root 17.519521 35.431563 -22.885474 -169.211652 3.789077 -178.256433
Spine -19.344435 -4.344435 2.973445
Head 11.894777 2.159826 1.293555
LeftShoulder -9.763454 -29.247777 19.907081
LeftArm -1.742883 4.084265 -8.879282
LeftForeArm 10.056956 0.000000 -3.240860
LeftHand -11.510420 -0.000000 -1.727658
LeftHandThumb1 -26.253704 0.000000 33.147579
RightShoulder -14.526904 -3.385610 -11.564014
RightArm 8.707806 32.885013 10.969535
RightForeArm -35.402814 -0.000000 4.154928
RightHand -6.349828 -0.000000 7.734828
RightHandThumb1 -24.326973 -0.000000 -32.862282
LeftUpLeg -1.317153 13.504032 3.886322
LeftLeg -7.182643 -0.000000 0.000000
LeftFoot -19.854134 27.749682 -15.161147
LeftToeBase 25.437288 -0.000000 -0.000000
RightUpLeg -4.390832 -3.625256 -2.462974
RightLeg -3.361819 -0.000000 0.000000
RightFoot -18.296510 -16.941117 17.427482
RightToeBase 22.475459 -0.000000 -0.000000
966
root 17.531121 35.428185 -22.898543 -169.224454 3.837327 -178.235356
Spine -19.375179 -4.403252 2.974841
Head 11.861551 1.876875 1.275880
LeftShoulder -9.882399 -29.294671 19.982401
LeftArm -1.876755 4.172210 -8.855434
LeftForeArm 9.936079 0.000000 -3.314174
LeftHand -11.441890 -0.000000 -1.846619
LeftHandThumb1 -26.253704 0.000000 33.147579
RightShoulder -14.682129 -3.435738 -11.577083
RightArm 8.463775 33.075703 10.939118
RightForeArm -35.522789 -0.000000 4.061472
RightHand -6.309323 -0.000000 7.622926
RightHandThumb1 -24.326973 -0.000000 -32.862282
LeftUpLeg -1.273009 13.533134 3.925366
LeftLeg -7.174759 -0.000000 0.000000
LeftFoot -19.892727 27.779924 -15.153778
LeftToeBase 25.456721 -0.000000 -0.000000
RightUpLeg -4.372420 -3.610091 -2.436783
RightLeg -3.337902 -0.000000 0.000000
RightFoot -18.327306 -16.855844 17.382212
RightToeBase 22.682236 -0.000000 -0.000000
967
root 17.540083 35.424126 -22.911757 -169.251527 3.902558 -178.210568
Spine -19.388318 -4.438194 2.998546
Head 11.806438 1.723540 1.303376
LeftShoulder -9.986758 -29.303426 20.036121
LeftArm -2.059271 4.060074 -8.830246
LeftForeArm 9.999882 -0.000000 -3.317504
LeftHand -11.593631 -0.000000 -1.728729
LeftHandThumb1 -26.253704 0.000000 33.147579
RightShoulder -14.808140 -3.393434 -11.627355
RightArm 8.192379 33.149828 10.861095
RightForeArm -35.572205 0.000000 3.900912
RightHand -6.132382 -0.000000 7.588045
RightHandThumb1 -24.326973 -0.000000 -32.862282
LeftUpLeg -1.208285 13.564947 3.964910
LeftLeg -7.171228 -0.000000 0.000000
LeftFoot -19.946510 27.830363 -15.139453
LeftToeBase 25.440274 -0.000000 -0.000000
RightUpLeg -4.333533 -3.553981 -2.416122
RightLeg -3.330735 -0.000000 0.000000
RightFoot -18.366913 -16.815641 17.360669
RightToeBase 22.771187 -0.000000 -0.000000
968
root 17.550604 35.419232 -22.927175 -169.317668 3.999107 -178.175935
Spine -19.345655 -4.444292 3.016377
Head 11.741904 1.552917 1.289485
LeftShoulder -10.087593 -29.360609 20.107213
LeftArm -2.279456 3.878960 -8.782981
LeftForeArm 10.099805 -0.000000 -3.329847
LeftHand -11.607831 -0.000000 -1.697791
LeftHandThumb1 -26.253704 0.000000 33.147579
RightShoulder -14.922877 -3.412014 -11.654784
RightArm 7.936220 33.171136 10.808088
RightForeArm -35.566527 0.000000 3.845826
RightHand -6.171924 0.000000 7.622226
RightHandThumb1 -24.326973 -0.000000 -32.862282
LeftUpLeg -1.089570 13.587931 4.025935
LeftLeg -7.169163 -0.000000 0.000000
LeftFoot -20.022245 27.912695 -15.129128
LeftToeBase 25.462900 -0.000000 -0.000000
RightUpLeg -4.251148 -3.401474 -2.398980
RightLeg -3.327312 -0.000000 0.000000
RightFoot -18.397971 -16.828847 17.359134
RightToeBase 22.646350 -0.000000 -0.000000
969
root 17.562142 35.415327 -22.939202 -169.368256 4.101845 -178.141750
Spine -19.306447 -4.451485 3.021605
Head 11.646441 1.444891 1.341306
LeftShoulder -10.205550 -29.363869 20.169891
LeftArm -2.443899 3.862888 -8.731472
LeftForeArm 9.953659 0.000000 -3.382402
LeftHand -11.626792 -0.000000 -1.662262
LeftHandThumb1 -26.253704 0.000000 33.147579
RightShoulder -15.050155 -3.378290 -11.676105
RightArm 7.714382 33.144997 10.790002
RightForeArm -35.561795 -0.000000 3.842120
RightHand -6.235711 -0.000000 7.712977
RightHandThumb1 -24.326973 -0.000000 -32.862282
LeftUpLeg -1.000721 13.646501 4.083148
LeftLeg -7.149092 -0.000000 0.000000
LeftFoot -20.087661 27.962907 -15.116720
LeftToeBase 25.492927 -0.000000 -0.000000
RightUpLeg -4.210668 -3.345057 -2.369605
RightLeg -3.294311 -0.000000 0.000000
RightFoot -18.416563 -16.757465 17.283367
RightToeBase 22.763579 -0.000000 -0.000000
